<svg width="22" height="17" viewBox="0 0 22 17" fill="none" xmlns="http://www.w3.org/2000/svg">
<path d="M13.9977 6.68179C13.9977 6.81686 14.0328 7.09125 14.1178 7.38199C14.2032 7.6741 14.3346 7.96672 14.5182 8.15054L14.6578 8.29019V8.47867C14.6578 9.38774 14.324 9.98328 13.8395 10.4054C13.3612 10.822 12.7391 11.0664 12.1735 11.2853C11.8334 11.4364 11.52 11.5391 11.1959 11.7189L11.109 11.7677L10.694 11.0207L10.6432 10.9289L10.736 10.882C11.1072 10.6959 11.4771 10.5482 11.8434 10.4015C12.4329 10.1618 12.8843 9.96572 13.1998 9.69839C13.5009 9.44332 13.68 9.12068 13.7203 8.61539C13.4856 8.31308 13.3318 7.93998 13.233 7.60757C13.1352 7.27814 13.0886 6.98305 13.068 6.82632C12.6737 6.21067 12.4774 5.57634 12.5846 5.10269C12.4941 4.74721 12.4406 4.27889 12.5006 3.82144C12.561 3.36152 12.7373 2.902 13.1158 2.58707C13.3499 1.91212 13.8423 1.42475 14.4772 1.12613L14.4811 1.12515L14.6696 1.05289C15.5699 0.742485 16.7245 0.810433 17.7838 1.24722L18.0094 1.34683L18.0153 1.34879V1.34976L18.3453 1.5314L18.4205 1.57339L18.3903 1.65445L18.2809 1.94742L18.2799 1.94644C18.1112 2.42114 18.244 2.79222 18.4264 3.23062H18.4254C18.6452 3.74408 18.8763 4.39118 18.5455 5.18863C18.6116 5.62062 18.4547 6.24589 18.0621 6.8605C18.0416 7.01732 17.996 7.3129 17.8981 7.64273C17.7991 7.97578 17.6444 8.34986 17.4088 8.6525C17.4323 9.15635 17.6113 9.47845 17.9166 9.73355C18.2366 10.0008 18.6966 10.1971 19.2858 10.4367C19.8884 10.6742 20.595 10.9555 21.1471 11.465C21.7045 11.9795 22.1002 12.7217 22.1002 13.8664V14.3332H14.567V13.3996H21.151C21.0642 12.7553 20.8034 12.3419 20.4371 12.0373C20.044 11.7104 19.5282 11.5045 18.9567 11.2834C18.3911 11.0645 17.7689 10.8201 17.2906 10.4035C16.8063 9.98135 16.4733 9.38552 16.4733 8.47672V8.28824L16.6119 8.14957C16.7947 7.96681 16.9174 7.67541 16.9987 7.38199C17.0791 7.0915 17.115 6.81316 17.1334 6.66714V6.53922L17.15 6.51382L17.2213 6.40933C17.418 6.08728 17.5244 5.81234 17.5768 5.61148C17.603 5.51108 17.6157 5.43024 17.6198 5.37222C17.6218 5.3431 17.621 5.3208 17.6198 5.30582C17.6183 5.28776 17.6163 5.28833 17.6207 5.29703V5.29605L17.5475 5.14957L17.528 5.10953L17.5446 5.06754L17.6168 4.88492L17.6217 4.87418L17.6676 4.7814C17.8711 4.32427 17.7172 3.97776 17.5426 3.48843V3.48746C17.3664 3.06557 17.1854 2.59068 17.2711 1.97964C16.4298 1.64816 15.5397 1.62589 14.8932 1.93179L14.8893 1.93375C14.4065 2.14084 14.1322 2.48232 13.9928 2.9689L13.9567 3.11343L13.9479 3.15054L13.9156 3.17203L13.8063 3.24332C13.6046 3.38325 13.4913 3.66772 13.4557 4.00601C13.4205 4.34026 13.4645 4.70187 13.5514 4.96304L13.5543 4.96988V4.97086L13.5905 5.11734L13.6002 5.15347L13.5836 5.18668L13.5143 5.32339C13.5113 5.33533 13.508 5.36767 13.5123 5.42398C13.5169 5.48306 13.5301 5.56198 13.5582 5.65933C13.6005 5.80571 13.6757 5.99198 13.8014 6.21207L13.944 6.44351L13.9508 6.45328H13.9498L13.9869 6.52652L13.9977 6.548V6.68179Z" fill="#DF18FF" stroke="#DF18FF" stroke-width="0.2"/>
<path d="M7.22363 1.52124C7.87989 1.52124 8.40008 1.66179 8.81445 1.90601C9.22883 2.1503 9.53199 2.49446 9.75879 2.89136C10.0967 3.48278 10.2696 4.19861 10.3965 4.88843L10.5127 5.56421V5.56519C10.6045 6.15342 10.6949 6.71383 10.8477 7.1814C11.0002 7.648 11.2096 8.00583 11.5273 8.20776L11.8555 8.3894L11.9502 8.44214L11.8906 8.53198L11.6699 8.86206C11.153 9.63656 10.0063 10.3593 8.81836 10.7058C9.2264 11.8936 10.2109 12.2405 11.2891 12.6355H11.29C11.9098 12.8543 12.5973 13.0983 13.127 13.5476C13.6634 14.0027 14.0332 14.6634 14.0332 15.7V16.1667H-0.0996094V15.7C-0.0996044 14.6633 0.26994 14.0027 0.811523 13.5476C1.34566 13.0988 2.04121 12.8549 2.67969 12.6365L3.08887 12.4841C4.00038 12.1322 4.79456 11.7126 5.15039 10.7058C3.96318 10.3591 2.81656 9.63715 2.30078 8.86304L2.08105 8.53296L2.02051 8.44312L2.11523 8.39038L2.43945 8.21069L2.55957 8.1228C2.82242 7.90637 2.97265 7.6081 3.06152 7.24878C3.16393 6.83454 3.1826 6.34991 3.20117 5.83374C3.21952 5.17824 3.23734 4.42617 3.49707 3.77905C3.75845 3.12813 4.26233 2.58715 5.22949 2.33765C5.5379 2.032 6.14614 1.52133 7.22363 1.52124ZM7.22168 2.4519C6.41962 2.4519 6.04074 2.83108 5.78906 3.08276L5.69922 3.17261L5.67676 3.18042L5.56738 3.21655L5.55664 3.22046V3.21948C5.22817 3.29046 4.98107 3.40063 4.79395 3.5437C4.60762 3.68622 4.47571 3.86593 4.38086 4.08374C4.18848 4.52573 4.1504 5.11968 4.13184 5.87476V5.87573C4.11387 6.36866 4.09576 6.9007 3.9834 7.39722C3.87777 7.86379 3.68514 8.30361 3.3291 8.65894C3.88016 9.20611 4.87865 9.74542 5.81055 9.91772H5.81152L6.17871 9.99097L6.27637 10.0105L6.25684 10.1082L6.18457 10.4753L6.18359 10.4773C5.95833 11.491 5.47697 12.1354 4.88574 12.5847C4.44573 12.919 3.9458 13.1438 3.4541 13.3357L2.96777 13.5203C2.41229 13.7242 1.92397 13.8937 1.55273 14.1589C1.21374 14.4011 0.975082 14.7232 0.887695 15.2332H13.0781C12.9907 14.7403 12.7532 14.418 12.4141 14.1716C12.1355 13.9693 11.7902 13.8182 11.4014 13.6697L10.999 13.5203C10.3608 13.283 9.65777 13.0305 9.06641 12.5847C8.4704 12.1353 7.98884 11.491 7.78223 10.4763V10.4753L7.70898 10.1082L7.68945 10.0105L7.78809 9.99097L8.15527 9.91772H8.15625L8.33887 9.87964C9.21746 9.67446 10.1239 9.16819 10.6387 8.65601C10.3147 8.30187 10.1061 7.85546 9.95801 7.36792C9.79984 6.84704 9.70652 6.27183 9.61523 5.70483V5.70386C9.4316 4.65571 9.25967 3.84207 8.91895 3.28882C8.75053 3.01551 8.54204 2.80856 8.27148 2.6687C7.99999 2.52837 7.65935 2.45195 7.22168 2.4519Z" fill="#DF18FF" stroke="#DF18FF" stroke-width="0.2"/>
</svg>
